<?xml version="1.0" encoding="UTF-8" standalone="no"?>
<!-- Created with Inkscape (http://www.inkscape.org/) -->
<svg
   version="1.1"
   id="svg1"
   width="3752"
   height="4784"
   viewBox="0 0 3752 4784"
   sodipodi:docname="home.svg"
   inkscape:version="1.3 (0e150ed, 2023-07-21)"
   xmlns:inkscape="http://www.inkscape.org/namespaces/inkscape"
   xmlns:sodipodi="http://sodipodi.sourceforge.net/DTD/sodipodi-0.dtd"
   xmlns="http://www.w3.org/2000/svg"
   xmlns:svg="http://www.w3.org/2000/svg">
  <defs
     id="defs1" />
  <sodipodi:namedview
     id="namedview1"
     pagecolor="#ffffff"
     bordercolor="#000000"
     borderopacity="0.25"
     inkscape:showpageshadow="2"
     inkscape:pageopacity="0.0"
     inkscape:pagecheckerboard="0"
     inkscape:deskcolor="#d1d1d1"
     inkscape:zoom="0.33638873"
     inkscape:cx="2302.3958"
     inkscape:cy="2642.7758"
     inkscape:window-width="1920"
     inkscape:window-height="1027"
     inkscape:window-x="0"
     inkscape:window-y="25"
     inkscape:window-maximized="0"
     inkscape:current-layer="layer1" />
  <g
     inkscape:groupmode="layer"
     id="layer1"
     inkscape:label="lines">
    <path
       style="fill:none;fill-opacity:1;stroke:#57786d;stroke-width:9.37016;stroke-linecap:round;stroke-linejoin:bevel;stroke-dasharray:none;stroke-opacity:1"
       d="M 925.64997,1020.965 C 1242.2335,766.13062 1338.3641,749.09931 1581.2628,696.29531 c 242.8985,-52.80408 612.5267,-73.92569 887.1078,68.64517 274.5809,142.57098 406.591,290.42212 496.3579,438.27352 89.7668,147.8513 132.2178,237.9007 183.2758,311.5438 61.6602,88.935 113.2259,555.4897 80.7443,638.9289 -29.9831,77.0211 -157.9604,523.7718 -100.3276,786.7801 46.6901,213.0716 17.9673,268.8703 17.9673,268.8703 0,0 -23.2476,111.3187 -107.7341,174.6836 -84.4864,63.3649 -253.4595,406.5911 -258.7398,570.2835 -5.2805,163.6926 -264.0202,211.2162 -264.0202,211.2162 0,0 -216.4967,184.8141 -343.2263,216.4966 -126.7297,31.6823 -264.0202,26.4019 -417.1518,-137.2905 -153.1318,-163.6925 -152.7309,-156.5966 -152.7309,-156.5966 0,0 -132.4109,-65.1803 -253.8602,-170.7884 -121.4493,-105.6081 -136.7074,-209.4988 -136.7074,-209.4988 0,0 -9.6143,40.1928 -85.0696,35.455 -95.7811,-6.0141 -121.4493,-111.098 -121.4493,-111.098 0,0 -216.49654,-142.5709 -242.8986,-306.2633 -26.40196,-163.6927 143.88803,-139.9012 143.88803,-139.9012 l -73.93747,3.8802 c 0,0 -32.98772,-85.7561 -154.43696,-291.6918 C 556.86442,2692.2879 377.40038,2337.6455 461.88685,1851.8484 l -0.0696,0.8552 c 0.70933,0.6433 52.7708,-326.1651 205.96921,-536.4722"
       id="path1"
       inkscape:label="path1"
       sodipodi:nodetypes="csssssscsscsscscscsccsccc" />
    <path
       style="display:inline;fill:none;stroke:#57786d;stroke-width:9.37016;stroke-linecap:round;stroke-linejoin:bevel;stroke-dasharray:none;stroke-opacity:1"
       d="m 2076.4696,3811.338 c 0,0 -45.095,79.2208 24.3757,101.1591 69.4707,21.938 64.5956,-40.22 64.5956,-40.22"
       id="path96" />
    <path
       style="display:inline;fill:none;stroke:#57786d;stroke-width:9.37016;stroke-linecap:round;stroke-linejoin:bevel;stroke-dasharray:none;stroke-opacity:1"
       d="m 1966.7789,3925.9037 c 0,0 23.9702,-22.3448 75.1593,-24.1711"
       id="path97"
       sodipodi:nodetypes="cc" />
    <path
       style="display:inline;fill:none;stroke:#57786d;stroke-width:9.37016;stroke-linecap:round;stroke-linejoin:bevel;stroke-dasharray:none;stroke-opacity:1"
       d="m 2188.3946,3914.1224 c 0,0 28.2353,5.6874 48.9546,30.0631"
       id="path98"
       sodipodi:nodetypes="cc" />
    <path
       style="fill:none;stroke:#57786d;stroke-width:9.37016;stroke-linecap:round;stroke-linejoin:bevel;stroke-dasharray:none;stroke-opacity:1"
       d="m 2335.3919,3316.7213 c 0,0 68.0004,90.0546 268.3259,80.8654"
       id="path19" />
    <path
       style="fill:#57786d;stroke:#57786d;stroke-width:9.37016;stroke-linecap:round;stroke-linejoin:bevel;stroke-dasharray:none;stroke-opacity:1;fill-opacity:1"
       d="m 2636.6299,3244.3092 c -144.0013,134.3046 -258.6567,30.7633 -258.6567,30.7633 0,0 252.9828,-20.3984 258.6567,-30.7633 z"
       id="path18"
       sodipodi:nodetypes="cc" />
    <path
       style="fill:none;stroke:#57786d;stroke-width:9.37016;stroke-linecap:round;stroke-linejoin:bevel;stroke-dasharray:none;stroke-opacity:1"
       d="m 1326.4126,3256.0724 c 0,0 102.9196,95.568 393.2998,42.2704 290.3801,-53.2976 312.4344,-1.8378 312.4344,-1.8378"
       id="path15" />
    <path
       style="fill:none;stroke:#57786d;stroke-width:9.37016;stroke-linecap:round;stroke-linejoin:bevel;stroke-dasharray:none;stroke-opacity:1"
       d="m 1921.8757,3974.6713 c 0,0 231.6905,34.5629 339.2896,11.9177"
       id="path10"
       sodipodi:nodetypes="cc" />
    <path
       style="fill:none;stroke:#57786d;stroke-width:9.37016;stroke-linecap:round;stroke-linejoin:bevel;stroke-dasharray:none;stroke-opacity:1"
       d="m 826.165,3288.9735 c 0,0 -26.40206,174.2533 158.41212,232.3377"
       id="path5" />
    <path
       style="fill:none;stroke:#57786d;stroke-width:9.37016;stroke-linecap:round;stroke-linejoin:bevel;stroke-dasharray:none;stroke-opacity:1"
       d="m 1106.0264,3415.7031 c 0,0 -52.8039,68.6452 52.804,174.2533"
       id="path6" />
    <path
       style="fill:none;stroke:#57786d;stroke-width:9.37016;stroke-linecap:round;stroke-linejoin:bevel;stroke-dasharray:none;stroke-opacity:1"
       d="m 2237.9859,3270.7751 c 0,0 352.867,29.4056 602.8144,-99.2439"
       id="path17" />
    <path
       style="fill:none;stroke:#57786d;stroke-width:9.37016;stroke-linecap:round;stroke-linejoin:bevel;stroke-dasharray:none;stroke-opacity:1"
       d="m 2015.6061,4068.4017 c 0,0 58.8111,71.676 167.2442,16.5405"
       id="path11" />
    <path
       style="fill:none;stroke:#57786d;stroke-width:9.37016;stroke-linecap:round;stroke-linejoin:bevel;stroke-dasharray:none;stroke-opacity:1"
       d="m 875.00578,3188.6695 c 0,0 65.86815,-33.0826 215.17942,131.9863"
       id="path2"
       sodipodi:nodetypes="cc" />
    <path
       style="fill:none;stroke:#57786d;stroke-width:9.37016;stroke-linecap:round;stroke-linejoin:bevel;stroke-dasharray:none;stroke-opacity:1"
       d="m 1965.9842,3676.9398 c 0,0 -115.7845,260.9745 -352.867,139.6765 -237.0825,-121.2981 -233.4069,-128.6494 -233.4069,-128.6494"
       id="path21" />
    <path
       style="fill:none;stroke:#57786d;stroke-width:9.37016;stroke-linecap:round;stroke-linejoin:bevel;stroke-dasharray:none;stroke-opacity:1"
       d="m 2385.0138,3746.778 c 0,0 229.731,163.5685 396.9754,-80.8654 167.2442,-244.4339 133.8876,-197.3463 133.8876,-197.3463"
       id="path22"
       sodipodi:nodetypes="csc" />
    <path
       style="fill:none;stroke:#57786d;stroke-width:9.37016;stroke-linecap:round;stroke-linejoin:bevel;stroke-dasharray:none;stroke-opacity:1"
       d="m 1111.3068,3420.9835 c 0,0 -232.33776,-227.0574 -306.26347,-116.1689"
       id="path4" />
    <path
       style="fill:none;stroke:#57786d;stroke-width:9.37016;stroke-linecap:round;stroke-linejoin:bevel;stroke-dasharray:none;stroke-opacity:1"
       d="m 1967.822,3329.5863 c 0,0 -216.8661,189.2984 -334.4885,110.2709"
       id="path20" />
    <path
       style="fill:none;stroke:#57786d;stroke-width:9.37016;stroke-linecap:round;stroke-linejoin:bevel;stroke-dasharray:none;stroke-opacity:1"
       d="m 2325.597,4690.2698 c 0,0 155.5376,-370.9965 190.4778,-523.0893"
       id="path24"
       inkscape:label="path24"
       sodipodi:nodetypes="cc" />
    <path
       style="fill:none;stroke:#57786d;stroke-width:9.37016;stroke-linecap:round;stroke-linejoin:bevel;stroke-dasharray:none;stroke-opacity:1"
       d="m 1454.1463,4001.7417 c 0,0 61.6593,162.3693 -41.1061,567.265"
       id="path23" />
    <path
       style="display:inline;fill:none;stroke:#57786d;stroke-width:9.37016;stroke-linecap:round;stroke-linejoin:bevel;stroke-dasharray:none;stroke-opacity:1"
       d="m 1746.0001,4328.5356 c 0,0 14.3872,162.3694 67.8251,228.1393"
       id="path25" />
    <path
       style="fill:none;stroke:#57786d;stroke-width:9.37016;stroke-linecap:round;stroke-linejoin:bevel;stroke-dasharray:none;stroke-opacity:1"
       d="m 1212.8008,3708.5542 c 0,0 25.2357,-49.9525 14.6749,-118.5978"
       id="path7"
       sodipodi:nodetypes="cc" />
    <path
       style="fill:none;stroke:#57786d;stroke-width:9.37016;stroke-linecap:round;stroke-linejoin:bevel;stroke-dasharray:none;stroke-opacity:1"
       d="m 2165.283,4608.0575 c 0,0 73.991,-145.9268 100.71,-209.6414"
       id="path26" />
    <path
       style="fill:none;stroke:#57786d;stroke-width:9.37016;stroke-linecap:round;stroke-linejoin:bevel;stroke-dasharray:none;stroke-opacity:1"
       d="m 2874.9616,3648.0408 c 0,0 97.3306,32.6415 122.9619,-220.6009"
       id="path8"
       sodipodi:nodetypes="cc" />
    <path
       style="fill:none;stroke:#57786d;stroke-width:9.37016;stroke-linecap:round;stroke-linejoin:bevel;stroke-dasharray:none;stroke-opacity:1"
       d="m 1962.1927,3659.0118 c 0,0 -11.1418,42.834 74.9144,69.9649 84.4864,26.6358 73.8954,65.2625 205.0557,17.0748 0,0 70.0965,20.9397 69.2966,-65.4795"
       id="path9"
       sodipodi:nodetypes="cscc" />
    <path
       style="display:inline;fill:none;stroke:#57786d;stroke-width:9.37016;stroke-linecap:round;stroke-linejoin:bevel;stroke-dasharray:none;stroke-opacity:1"
       d="m 836.31537,2335.1832 c 0,0 8.61543,-123.5584 47.27291,-231.5089"
       id="path27"
       sodipodi:nodetypes="cc" />
    <path
       style="display:inline;fill:none;stroke:#57786d;stroke-width:9.37016;stroke-linecap:round;stroke-linejoin:bevel;stroke-dasharray:none;stroke-opacity:1"
       d="m 877.18269,2337.9077 c 5.44902,-10.8979 40.8674,-108.9795 38.14283,-291.5202"
       id="path29" />
    <path
       style="display:inline;fill:none;stroke:#57786d;stroke-width:9.37016;stroke-linecap:round;stroke-linejoin:bevel;stroke-dasharray:none;stroke-opacity:1"
       d="m 931.67248,2327.0098 c 0,0 -25.16542,-81.4464 -22.44096,-133.2118"
       id="path30"
       sodipodi:nodetypes="cc" />
    <path
       style="display:inline;fill:none;stroke:#57786d;stroke-width:9.37016;stroke-linecap:round;stroke-linejoin:bevel;stroke-dasharray:none;stroke-opacity:1"
       d="m 977.9887,2313.3873 c 0,0 38.1428,-106.2549 27.2449,-168.9182 -10.89794,-62.6632 -29.96936,-128.0508 -29.96936,-128.0508"
       id="path31" />
    <path
       style="display:inline;fill:none;stroke:#57786d;stroke-width:9.37016;stroke-linecap:round;stroke-linejoin:bevel;stroke-dasharray:none;stroke-opacity:1"
       d="m 1008.1022,2164.762 c 0,0 24.3763,91.411 51.6211,115.9315"
       id="path32"
       sodipodi:nodetypes="cc" />
    <path
       style="display:inline;fill:none;stroke:#57786d;stroke-width:9.37016;stroke-linecap:round;stroke-linejoin:bevel;stroke-dasharray:none;stroke-opacity:1"
       d="m 1111.4886,2239.8262 -33.339,-233.7296"
       id="path33"
       sodipodi:nodetypes="cc" />
    <path
       style="display:inline;fill:none;stroke:#57786d;stroke-width:9.37016;stroke-linecap:round;stroke-linejoin:bevel;stroke-dasharray:none;stroke-opacity:1"
       d="m 1182.3252,2089.9794 c -43.5917,2.7245 -92.6325,-57.2143 -92.6325,-57.2143 0,0 -21.7959,-49.0407 -27.2449,-81.7346"
       id="path34" />
    <path
       style="display:inline;fill:none;stroke:#57786d;stroke-width:9.37016;stroke-linecap:round;stroke-linejoin:bevel;stroke-dasharray:none;stroke-opacity:1"
       d="m 749.13182,2228.9282 c 0,0 140.49775,-93.9388 138.27425,-271.5317"
       id="path35"
       sodipodi:nodetypes="cc" />
    <path
       style="display:inline;fill:none;stroke:#57786d;stroke-width:9.37016;stroke-linecap:round;stroke-linejoin:bevel;stroke-dasharray:none;stroke-opacity:1"
       d="m 729.46722,2146.4467 c 0,0 80.63599,0.2857 128.64407,-51.0183"
       id="path36"
       sodipodi:nodetypes="cc" />
    <path
       style="display:inline;fill:none;stroke:#57786d;stroke-width:9.37016;stroke-linecap:round;stroke-linejoin:bevel;stroke-dasharray:none;stroke-opacity:1"
       d="m 713.7135,2084.5304 c 0,0 151.17501,-16.3821 170.63359,-228.7289"
       id="path37"
       sodipodi:nodetypes="cc" />
    <path
       style="display:inline;fill:none;stroke:#57786d;stroke-width:9.37016;stroke-linecap:round;stroke-linejoin:bevel;stroke-dasharray:none;stroke-opacity:1"
       d="m 915.32552,2051.8366 c 0,0 -2.73089,-139.237 -55.7799,-263.3485"
       id="path38"
       sodipodi:nodetypes="cc" />
    <path
       style="display:inline;fill:none;stroke:#57786d;stroke-width:9.37016;stroke-linecap:round;stroke-linejoin:bevel;stroke-dasharray:none;stroke-opacity:1"
       d="m 743.33114,1993.8755 c 0,0 31.67969,29.3548 94.56263,7.2733"
       id="path39"
       sodipodi:nodetypes="cc" />
    <path
       style="display:inline;fill:none;stroke:#57786d;stroke-width:9.37016;stroke-linecap:round;stroke-linejoin:bevel;stroke-dasharray:none;stroke-opacity:1"
       d="m 746.34135,1960.6979 c 16.34695,8.1735 82.01355,11.1265 128.32975,-46.0878"
       id="path40"
       sodipodi:nodetypes="cc" />
    <path
       style="display:inline;fill:none;stroke:#57786d;stroke-width:9.37016;stroke-linecap:round;stroke-linejoin:bevel;stroke-dasharray:none;stroke-opacity:1"
       d="m 1067.8968,1861.1225 c 0,0 92.6326,160.7446 125.3263,125.3264"
       id="path41" />
    <path
       style="display:inline;fill:none;stroke:#57786d;stroke-width:9.37016;stroke-linecap:round;stroke-linejoin:bevel;stroke-dasharray:none;stroke-opacity:1"
       d="m 969.81522,1654.0615 92.63258,144.3977 c 0,0 24.5204,106.255 152.5713,19.0714"
       id="path42" />
    <path
       style="display:inline;fill:none;stroke:#57786d;stroke-width:9.37016;stroke-linecap:round;stroke-linejoin:bevel;stroke-dasharray:none;stroke-opacity:1"
       d="m 1023.6599,1736.1531 c 0,0 55.1348,75.9286 120.5226,-0.357"
       id="path44"
       sodipodi:nodetypes="cc" />
    <path
       style="display:inline;fill:none;stroke:#57786d;stroke-width:9.37016;stroke-linecap:round;stroke-linejoin:bevel;stroke-dasharray:none;stroke-opacity:1"
       d="m 969.81522,1654.0615 -84.45905,-98.0816 c 0,0 -137.09243,-157.0019 -216.10255,-481.2159 m -10.44643,-52.5376 C 611.93875,756.22617 719.16248,629.65433 719.16248,629.65433"
       id="path48"
       sodipodi:nodetypes="ccccc" />
    <path
       style="display:inline;fill:none;stroke:#57786d;stroke-width:9.37016;stroke-linecap:round;stroke-linejoin:bevel;stroke-dasharray:none;stroke-opacity:1"
       d="m 928.94803,1727.6226 c 0,0 -51.76534,-21.7959 -27.2449,-62.6632 24.52044,-40.8672 92.63253,51.7653 27.2449,62.6632 z"
       id="path49" />
    <path
       style="display:inline;fill:none;stroke:#57786d;stroke-width:9.37016;stroke-linecap:round;stroke-linejoin:bevel;stroke-dasharray:none;stroke-opacity:1"
       d="m 732.4174,1498.9868 -26.87736,5.2279 -24.52038,-59.9388 c 0,0 4.41831,-23.0476 26.2142,-17.5986"
       id="path50"
       sodipodi:nodetypes="cccc" />
    <path
       style="display:inline;fill:none;stroke:#57786d;stroke-width:9.37016;stroke-linecap:round;stroke-linejoin:bevel;stroke-dasharray:none;stroke-opacity:1"
       d="M 593.16964,930.76231 473.95863,883.03159 c 0,0 -155.29576,79.01013 -250.65281,70.83665 -95.35704,-8.17348 -152.571273,-21.79577 -152.571273,-21.79577 0,0 87.183603,-40.8674 174.367173,-136.22439 87.18359,-95.35703 217.95897,-49.04082 217.95897,-49.04082 0,0 54.48974,35.41837 62.66321,87.18355 8.17345,51.76534 70.83665,59.93882 70.83665,59.93882"
       id="path51"
       sodipodi:nodetypes="ccscscsc" />
    <path
       style="display:inline;fill:none;stroke:#57786d;stroke-width:9.37016;stroke-linecap:round;stroke-linejoin:bevel;stroke-dasharray:none;stroke-opacity:1"
       d="m 471.23414,831.26632 c 0,0 -49.04077,-49.04069 -152.57127,-2.72449 -103.5305,46.31628 -114.42845,40.86736 -114.42845,40.86736"
       id="path52" />
    <path
       style="display:inline;fill:none;stroke:#57786d;stroke-width:9.37016;stroke-linecap:round;stroke-linejoin:bevel;stroke-dasharray:none;stroke-opacity:1"
       d="m 615.63196,761.43332 c 0,0 18.86445,-93.84311 -2.72449,-160.74474 -16.4385,-50.94102 -19.07141,-63.66681 -73.56114,-85.4627 -54.48975,-21.7959 -106.255,-81.73461 -111.70398,-163.46922 -5.44898,-81.73461 -2.72449,-231.58141 13.62244,-291.520115 0,0 185.26511,128.050895 198.88755,258.826275 13.62244,130.77537 -29.96935,168.91818 -13.62244,226.13242 16.34693,57.21423 29.96937,125.32642 29.96937,125.32642"
       id="path53"
       sodipodi:nodetypes="cssscssc" />
    <path
       style="display:inline;fill:none;stroke:#57786d;stroke-width:9.37016;stroke-linecap:round;stroke-linejoin:bevel;stroke-dasharray:none;stroke-opacity:1"
       d="m 645.60132,692.31758 c 0,0 57.21423,-111.704 73.56116,-193.43863 16.3469,-81.7346 150.78652,-129.03801 150.78652,-129.03801 0,0 61.72348,-10.70842 86.24382,14.60956 21.61118,22.31418 49.04078,98.08153 43.59186,152.57127 0,0 -29.96946,-57.21423 -54.4898,-62.66319"
       id="path54"
       sodipodi:nodetypes="cscscc" />
    <path
       style="display:inline;fill:none;stroke:#57786d;stroke-width:9.37016;stroke-linecap:round;stroke-linejoin:bevel;stroke-dasharray:none;stroke-opacity:1"
       d="m 721.7922,628.9041 c 0,0 157.64117,70.13378 239.66003,-203.57843"
       id="path55"
       sodipodi:nodetypes="cc" />
    <path
       style="display:inline;fill:none;stroke:#57786d;stroke-width:9.37016;stroke-linecap:round;stroke-linejoin:bevel;stroke-dasharray:none;stroke-opacity:1"
       d="m 783.65781,524.33909 c 0,0 102.21954,-194.65474 181.50605,-128.94326"
       id="path56"
       sodipodi:nodetypes="cc" />
    <path
       style="display:inline;fill:none;stroke:#57786d;stroke-width:9.37016;stroke-linecap:round;stroke-linejoin:bevel;stroke-dasharray:none;stroke-opacity:1"
       d="m 473.95863,169.21603 c 0,0 81.73461,155.29576 103.5305,264.27524"
       id="path57" />
    <path
       style="display:inline;fill:none;stroke:#57786d;stroke-width:9.37016;stroke-linecap:round;stroke-linejoin:bevel;stroke-dasharray:none;stroke-opacity:1"
       d="m 670.15176,1072.8175 36.69137,-68.0279 c 0,0 132.19673,-42.74788 230.27838,172.4866"
       id="path58"
       sodipodi:nodetypes="ccc" />
    <path
       style="display:inline;fill:none;stroke:#57786d;stroke-width:9.37016;stroke-linecap:round;stroke-linejoin:bevel;stroke-dasharray:none;stroke-opacity:1"
       d="m 697.36657,972.93966 c 0,0 8.17347,-49.04067 57.21423,-13.62239 49.04081,35.41827 204.33648,76.28563 190.71408,209.78553"
       id="path60" />
    <path
       style="display:inline;fill:none;stroke:#57786d;stroke-width:9.37016;stroke-linecap:round;stroke-linejoin:bevel;stroke-dasharray:none;stroke-opacity:1"
       d="m 765.47875,962.04172 c 0,0 133.49992,-119.87744 171.64276,122.60188"
       id="path61" />
    <path
       style="fill:none;stroke:#57786d;stroke-width:9.37016;stroke-linecap:round;stroke-linejoin:bevel;stroke-dasharray:none;stroke-opacity:1"
       d="m 723.78976,1242.6871 c 0,0 75.47085,-99.4843 137.21972,-166.3788"
       id="path67" />
    <path
       style="fill:none;stroke:#57786d;stroke-width:9.37016;stroke-linecap:round;stroke-linejoin:bevel;stroke-dasharray:none;stroke-opacity:1"
       d="m 1924.691,3326.1162 c 0,0 -173.6599,94.9703 -386.6646,16.2806"
       id="path68" />
    <path
       style="fill:none;stroke:#57786d;stroke-width:9.37016;stroke-linecap:round;stroke-linejoin:bevel;stroke-dasharray:none;stroke-opacity:1"
       d="m 1504.1085,3385.8118 c 0,0 172.3031,56.982 307.9749,17.6373"
       id="path69" />
    <path
       style="fill:none;stroke:#57786d;stroke-width:9.37016;stroke-linecap:round;stroke-linejoin:bevel;stroke-dasharray:none;stroke-opacity:1"
       d="m 2489.0855,3354.6072 c 0,0 145.1689,25.7777 198.0809,-63.7657"
       id="path70" />
    <path
       style="fill:none;stroke:#57786d;stroke-width:9.37016;stroke-linecap:round;stroke-linejoin:bevel;stroke-dasharray:none;stroke-opacity:1"
       d="m 1972.508,3690.2021 c 0,0 -32.3985,-33.2169 13.3713,-127.1951 52.5728,-107.9463 38.2994,-157.9848 38.2994,-157.9848"
       id="path71"
       sodipodi:nodetypes="csc" />
    <path
       style="fill:none;stroke:#57786d;stroke-width:9.37016;stroke-linecap:round;stroke-linejoin:bevel;stroke-dasharray:none;stroke-opacity:1"
       d="m 2311.424,3689.8737 c 0,0 1.1968,-22.7403 -10.7718,-52.6616 0,0 -14.7316,-43.264 -4.603,-122.2671"
       id="path72" />
    <path
       style="fill:none;stroke:#57786d;stroke-width:9.37016;stroke-linecap:round;stroke-linejoin:bevel;stroke-dasharray:none;stroke-opacity:1"
       d="m 660.02052,1021.2402 c 0,0 25.92771,-22.47997 37.33185,-48.00347"
       id="path73"
       sodipodi:nodetypes="cc" />
    <path
       style="fill:none;stroke:#57786d;stroke-width:9.37016;stroke-linecap:round;stroke-linejoin:bevel;stroke-dasharray:none;stroke-opacity:1"
       d="m 3137.6991,2523.8455 c 0,0 -23.3382,180.6781 -228.2991,303.3846"
       id="path74"
       sodipodi:nodetypes="cc" />
    <path
       style="fill:none;stroke:#57786d;stroke-width:9.37016;stroke-linecap:round;stroke-linejoin:bevel;stroke-dasharray:none;stroke-opacity:1"
       d="m 3113.6653,2780.4402 c 0,0 -18.7319,69.4943 -96.245,114.933"
       id="path75"
       sodipodi:nodetypes="cc" />
    <path
       style="fill:none;stroke:#57786d;stroke-width:9.37016;stroke-linecap:round;stroke-linejoin:bevel;stroke-dasharray:none;stroke-opacity:1"
       d="m 3131.006,2955.5894 c 0,0 -28.0541,54.7169 -121.6043,134.9026"
       id="path76"
       sodipodi:nodetypes="cc" />
    <path
       style="fill:none;stroke:#57786d;stroke-width:9.37016;stroke-linecap:round;stroke-linejoin:bevel;stroke-dasharray:none;stroke-opacity:1"
       d="m 780.23526,2900.719 c 0,0 192.44605,133.643 379.54634,203.1374"
       id="path77" />
    <path
       style="fill:none;stroke:#57786d;stroke-width:9.37016;stroke-linecap:round;stroke-linejoin:bevel;stroke-dasharray:none;stroke-opacity:1"
       d="m 1330.8448,3095.8378 c 0,0 82.8586,24.0557 149.6802,24.0557"
       id="path78" />
    <path
       style="fill:none;stroke:#57786d;stroke-width:9.37016;stroke-linecap:round;stroke-linejoin:bevel;stroke-dasharray:none;stroke-opacity:1"
       d="m 528.98623,2585.3212 c 0,0 96.22302,144.3346 285.99613,216.5019"
       id="path79" />
    <path
       style="fill:none;stroke:#57786d;stroke-width:9.37016;stroke-linecap:round;stroke-linejoin:bevel;stroke-dasharray:none;stroke-opacity:1"
       d="m 2811.8734,2885.5605 c 0.3648,1.3302 -51.3679,31.6647 -120.6375,46.2698"
       id="path80"
       sodipodi:nodetypes="cc" />
    <path
       style="fill:none;stroke:#57786d;stroke-width:9.37016;stroke-linecap:round;stroke-linejoin:bevel;stroke-dasharray:none;stroke-opacity:1"
       d="m 878.16572,1880.0074 c 0,0 -12.52379,0 -35.06669,-13.7761"
       id="path89" />
    <path
       style="fill:none;stroke:#57786d;stroke-width:9.37016;stroke-linecap:round;stroke-linejoin:bevel;stroke-dasharray:none;stroke-opacity:1"
       d="m 864.38953,1918.8312 c 0,0 -6.26193,-10.019 -23.79521,-22.5429"
       id="path90" />
    <path
       style="fill:none;stroke:#57786d;stroke-width:9.37016;stroke-linecap:round;stroke-linejoin:bevel;stroke-dasharray:none;stroke-opacity:1"
       d="m 1092.0568,2348.231 c 0,0 124.8588,-68.1047 175.1264,-239.9882"
       id="path91" />
    <path
       style="fill:none;stroke:#57786d;stroke-width:9.37016;stroke-linecap:round;stroke-linejoin:bevel;stroke-dasharray:none;stroke-opacity:1"
       d="m 638.02502,2049.8674 c 0,0 -14.59389,168.6403 107.02174,264.3113"
       id="path92" />
    <path
       style="fill:none;stroke:#57786d;stroke-width:9.37016;stroke-linecap:round;stroke-linejoin:bevel;stroke-dasharray:none;stroke-opacity:1"
       d="m 616.88823,755.2991 c 0,0 -71.31843,208.81007 52.45492,558.9727 117.78364,333.2172 98.14393,243.8557 188.50989,475.3727"
       id="path93"
       sodipodi:nodetypes="csc" />
    <path
       style="fill:none;stroke:#57786d;stroke-width:9.37016;stroke-linecap:round;stroke-linejoin:bevel;stroke-dasharray:none;stroke-opacity:1"
       d="m 1018.2617,1635.7517 c 0,0 125.4709,-28.4085 250.9416,142.0425"
       id="path99" />
    <path
       style="fill:none;stroke:#57786d;stroke-width:7.87;stroke-linecap:round;stroke-linejoin:bevel"
       d="m 860.24346,3317.8269 c 0,0 -25.81097,149.024 242.72434,200.783"
       id="path3"
       sodipodi:nodetypes="cc" />
  </g>
</svg>
